<?xml version="1.0" encoding="utf-8"?>
<!-- Generator: Adobe Illustrator 16.0.5, SVG Export Plug-In . SVG Version: 6.00 Build 0)  -->
<!DOCTYPE svg PUBLIC "-//W3C//DTD SVG 1.1//EN" "http://www.w3.org/Graphics/SVG/1.1/DTD/svg11.dtd">
<svg version="1.1" id="Layer_1" xmlns="http://www.w3.org/2000/svg" xmlns:xlink="http://www.w3.org/1999/xlink" x="0px" y="0px"
	 width="792px" height="193.002px" viewBox="0 0 792 193.002" enable-background="new 0 0 792 193.002" xml:space="preserve">
<g>
	<path fill="#FFFFFF" d="M275.133,114.931V42.578h9.219v64.335h26.556v8.018H275.133z"/>
	<path fill="#FFFFFF" d="M330.991,114.931h-9.219V42.578h9.219V114.931z"/>
	<path fill="#FFFFFF" d="M344.129,114.931V42.578h23.55c10.02,0,13.428,3.408,16.133,7.416c2.506,3.909,2.906,8.219,2.906,9.62
		c0,9.019-3.105,15.032-12.426,17.136v0.502c10.323,1.203,14.833,7.415,14.833,17.336c0,18.538-13.531,20.343-21.747,20.343H344.129
		z M353.349,73.043h13.427c7.216-0.101,10.724-4.51,10.724-11.524c0-6.013-3.409-10.923-11.125-10.923h-13.026V73.043z
		 M353.349,106.913h13.026c9.821,0,13.329-7.015,13.329-12.325c0-11.524-7.116-13.528-16.535-13.528h-9.821V106.913z"/>
	<path fill="#FFFFFF" d="M408.273,81.661v33.27h-9.219V42.578h24.951c12.828,0,17.336,9.021,17.336,18.038
		c0,8.519-4.709,15.031-13.227,16.535v0.201c8.318,1.302,11.322,4.107,11.824,18.639c0.102,3.105,1.102,14.429,2.506,18.939h-9.619
		c-2.605-5.011-2.006-14.431-2.809-24.051c-0.701-8.817-7.814-9.219-10.92-9.219H408.273z M408.273,73.645h13.83
		c6.613,0,9.82-5.713,9.82-12.026c0-5.21-2.607-11.022-9.721-11.022h-13.93V73.645z"/>
	<path fill="#FFFFFF" d="M473.666,42.578h11.725l23.551,72.353h-10.322l-5.211-17.236h-27.957l-5.412,17.236h-9.32L473.666,42.578z
		 M479.279,51.096h-0.201l-11.322,38.581h23.148L479.279,51.096z"/>
	<path fill="#FFFFFF" d="M527.105,81.661v33.27h-9.219V42.578h24.951c12.828,0,17.338,9.021,17.338,18.038
		c0,8.519-4.711,15.031-13.229,16.535v0.201c8.318,1.302,11.324,4.107,11.824,18.639c0.102,3.105,1.102,14.429,2.506,18.939h-9.619
		c-2.605-5.011-2.004-14.431-2.807-24.051c-0.703-8.817-7.816-9.219-10.922-9.219H527.105z M527.105,73.645h13.83
		c6.613,0,9.82-5.713,9.82-12.026c0-5.21-2.607-11.022-9.721-11.022h-13.93V73.645z"/>
	<path fill="#FFFFFF" d="M604.15,42.578h9.32l-19.742,44.794v27.559h-9.221V87.372l-19.439-44.794h10.322l14.129,34.974
		L604.15,42.578z"/>
</g>
<g>
	<path fill="#FFFFFF" d="M691.896,149.854v-1.188c1.504-0.1,2.662-0.222,2.662-1.445c0-0.436-0.133-0.907-0.26-1.318l-0.652-2.246
		h-7.799l-0.688,1.902c-0.15,0.479-0.289,0.914-0.289,1.379c0,1.568,1.664,1.669,3.008,1.729v1.188h-9.111v-1.188
		c2.32-0.1,3.076-0.566,3.924-2.887l5.979-16.41l-0.338-0.538c2.553-0.837,3.277-1.226,4.377-2.035
		c0.443,1.499,0.5,1.695,0.998,3.263l4.898,15.031c0.871,2.667,1.285,3.325,3.623,3.576v1.188H691.896z M689.906,132.101
		l-3.246,9.175h6.357L689.906,132.101z"/>
	<path fill="#FFFFFF" d="M611.783,144.941c-0.982,1.594-3.332,5.51-9.428,5.51c-6.672,0-10.984-4.911-10.984-11.373
		c0-5.982,3.658-11.875,11.129-11.875c3.924,0,6.014,1.652,7.299,2.663l1.506-1.374l0.123,6.704l-0.98,0.183
		c-0.387-1.285-0.953-2.315-2.387-3.882c-0.678-0.715-2.311-2.167-4.625-2.167c-4.004,0-7.152,3.263-7.152,9.002
		c0,4.85,2.598,9.426,7.707,9.426c3.865,0,5.32-2.158,6.475-3.814L611.783,144.941z"/>
	<path fill="#FFFFFF" d="M616.621,149.854v-1.188c2.516-0.222,2.541-0.757,2.541-2.887c0.037-0.776,0.037-1.567,0.037-2.346v-9.276
		c0-1.442,0-2.881-0.104-3.573c-0.125-1.314-0.754-1.495-2.475-1.661v-1.184h9.479v1.184c-1.852,0.195-2.541,0.255-2.768,1.476
		c-0.154,0.712-0.18,2.346-0.18,3.669v3.047c1.898,0.103,3.242,0.151,5.098,0.151c1.873,0,3.354-0.049,5.24-0.151v-3.708
		c-0.027-4.037-0.061-4.206-3.068-4.483v-1.184h9.592v1.184c-2.572,0.315-2.572,0.347-2.572,4.55v9.337
		c0,0.865,0.027,3.663,0.127,4.322c0.156,1.155,0.814,1.374,2.445,1.534v1.188h-9.592v-1.188c2.219-0.251,2.816-0.313,3.008-1.841
		c0.061-0.64,0.061-1.478,0.061-3.079v-4.059c-1.746-0.057-3.213-0.155-5.037-0.155c-1.914,0-3.402,0.062-5.301,0.155v4.059
		c0.025,4.606,0.09,4.606,2.947,4.92v1.188H616.621z"/>
	<path fill="#FFFFFF" d="M643.922,149.854v-1.188c2.166-0.289,2.604-0.534,2.635-2.852v-2.821v-8.965
		c-0.031-4.595-0.031-4.724-2.635-5.105v-1.184h9.205v1.184c-2.604,0.255-2.604,0.382-2.604,5.105v8.939
		c0,0.778,0.025,3.261,0.086,3.909c0.156,1.347,0.783,1.664,2.518,1.789v1.188H643.922z"/>
	<path fill="#FFFFFF" d="M579.793,149.854v-1.188c2.164-0.289,2.596-0.534,2.629-2.852v-2.821v-8.965
		c-0.033-4.595-0.033-4.724-2.629-5.105v-1.184h9.178v1.184c-2.6,0.255-2.6,0.382-2.6,5.105v8.939c0,0.778,0.039,3.261,0.104,3.909
		c0.148,1.347,0.779,1.664,2.496,1.789v1.188H579.793z"/>
	<path fill="#FFFFFF" d="M565.857,149.854v-1.188c2.783-0.188,2.783-0.313,2.814-4.413V133.13l-7.736,17.006h-1.943l-7.111-17.236
		l-0.16,13.004c0,2.169,0.256,2.575,2.6,2.764v1.188h-7.67v-1.188c1.781-0.1,2.482-0.342,2.594-1.841
		c0.061-0.597,0.156-2.455,0.188-3.68l0.314-9.271c0.035-0.725,0.035-1.782,0.035-2.571c0-2.186-0.443-2.347-2.418-2.381v-1.184
		h6.957l6.898,16.794l7.582-16.794h6.736v1.309c-2.639,0.152-2.666,0.446-2.639,3.884v9.122c0,1.51,0.035,3.382,0.127,4.514
		c0.129,1.632,0.76,1.938,2.512,2.099v1.188H565.857z"/>
	<path fill="#FFFFFF" d="M703.668,149.854v-1.188c1.822-0.1,2.51-0.125,2.768-1.383c0.307-1.469,0.406-14.594,0.428-16.885
		c-1.221-1.129-1.719-1.351-3.195-1.476v-1.184h6.652c1.842,2.635,2.25,3.219,5.512,7.262l6.172,7.649v-9.906
		c-0.027-3.506-0.121-3.696-3.637-3.821v-1.184h8.725v1.184c-2.424,0.034-2.635,0.53-2.664,4.14l-0.314,17.072h-1.334l-1.967-2.47
		c-0.998-1.253-2.004-2.51-3.01-3.729l-8.736-10.785v11.467c0,3.582,0.242,3.707,3.629,4.049v1.188H703.668z"/>
	<path fill="#FFFFFF" d="M518.004,138.767c0,7.646-5.217,11.659-11.082,11.659c-6.434,0-11.455-4.646-11.455-11.69
		c0-6.045,4.051-11.503,11.158-11.469C513.326,127.292,518.004,132.052,518.004,138.767z M506.949,148.378
		c1.254-0.031,3.016-0.651,4.387-2.729c1.559-2.403,1.879-4.605,1.787-7.486c-0.094-2.846-0.881-5.297-2.506-7.042
		c-0.713-0.757-2.109-1.871-3.961-1.814c-1.846,0-3.209,1.16-3.9,1.939c-1.574,1.781-2.291,4.26-2.291,7.109
		c0,2.883,0.393,5.08,2.012,7.426C503.922,147.82,505.695,148.378,506.949,148.378z"/>
	<path fill="#FFFFFF" d="M520.225,148.633v1.222h9.16v-1.222c-2.289-0.217-2.572-0.433-2.646-2.853l0.025-6.309h2.453
		c2.465,0,3.785,0.238,3.938,2.707h1.068v-7.3h-1.068c-0.125,2.384-0.777,2.625-3.475,2.625h-2.916v-7.668
		c0.791-0.103,1.227-0.116,2.633-0.116c4.334,0,5.715-0.02,6.312,3.432h1.092l-0.354-5.411h-16.223v1.184
		c1.588,0.166,2.283,0.255,2.506,1.286c0.156,0.69,0.184,3.129,0.184,4.011v7.764c0,0.6-0.037,3.271-0.072,3.796
		C522.785,148.2,522.508,148.416,520.225,148.633z"/>
	<path fill="#FFFFFF" d="M330.066,149.701v-1.194c2.169-0.282,2.603-0.526,2.631-2.855v-2.811v-8.965
		c-0.029-4.605-0.029-4.737-2.631-5.104v-1.194h9.191v1.194c-2.601,0.255-2.601,0.366-2.601,5.104v8.935
		c0,0.777,0.025,3.264,0.094,3.914c0.157,1.348,0.782,1.653,2.506,1.782v1.194H330.066z"/>
	<path fill="#FFFFFF" d="M427.533,149.701v-1.194c2.152-0.282,2.598-0.526,2.617-2.855v-2.811v-8.965
		c-0.02-4.605-0.02-4.737-2.617-5.104v-1.194h9.17v1.194c-2.605,0.255-2.605,0.366-2.605,5.104v8.935
		c0,0.777,0.037,3.264,0.102,3.914c0.154,1.348,0.781,1.653,2.504,1.782v1.194H427.533z"/>
	<path fill="#FFFFFF" d="M303.132,149.701v-1.194c1.819-0.091,2.504-0.129,2.761-1.374c0.314-1.481,0.404-14.604,0.436-16.888
		c-1.228-1.126-1.727-1.35-3.196-1.473v-1.194h6.642c1.849,2.632,2.253,3.229,5.517,7.272l6.167,7.644v-9.901
		c-0.023-3.503-0.118-3.697-3.634-3.82v-1.194h8.707v1.194c-2.41,0.023-2.622,0.533-2.65,4.135l-0.321,17.081h-1.311l-1.972-2.48
		c-1.01-1.258-2.009-2.504-3.014-3.728l-8.738-10.786v11.473c0,3.571,0.249,3.695,3.637,4.04v1.194H303.132z"/>
	<path fill="#FFFFFF" d="M409.243,142.811l1.132-0.127c1.217,3.607,3.252,5.541,6.576,5.541c2.342,0,4.42-1.003,4.42-3.384
		c0-2.512-2.408-3.505-3.48-3.939c-0.881-0.352-1.811-0.637-2.693-0.979c-1.814-0.656-5.238-2.062-5.238-6.358
		c0-4.13,3.264-6.461,7.051-6.461c1.479,0,3.197,0.316,5.08,1.517l1.348-0.972l0.721,6.572l-1.102,0.216
		c-0.381-1.442-0.662-2.11-1.531-3.271c-1.066-1.379-2.562-2.026-4.324-2.026c-2.352,0-3.725,1.132-3.725,2.891
		c0,2.628,2.604,3.516,5.07,4.315c1.258,0.418,2.289,0.762,3.189,1.285c1.754,1.043,3.201,2.981,3.201,5.639
		c0,3.833-3.141,6.998-7.797,6.998c-3.008,0-4.865-1.194-5.73-1.76l-1.842-1.334L409.243,142.811z"/>
	<path fill="#FFFFFF" d="M445.607,149.701v-0.94c2.039-0.036,2.602-0.78,2.602-2.531v-16.302h-2.754
		c-2.494,0-4.152-0.104-4.352,3.847h-1.15l0.182-6.196h20.1l0.18,6.196h-1.164c-0.18-3.95-1.842-3.847-4.346-3.847h-2.758v16.302
		c0,1.751,0.568,2.495,2.598,2.531v0.94H445.607z"/>
	<path fill="#FFFFFF" d="M285.093,127.578v1.194c-2.943,0.214-2.943,0.317-2.975,5.014v5.192c0,2.707,0.055,5.024,1.479,7.096
		c1.129,1.641,3.052,1.856,4.02,1.856c3.165,0,4.909-1.64,5.667-4.255c0.625-2.059,0.649-5.941,0.649-8.514
		c0-0.811,0-3.456-0.025-4.163c-0.13-2.013-1.164-2.075-3.139-2.227v-1.194h8.424v1.194c-2.062-0.041-2.503,0.429-2.626,2.632
		c-0.034,0.529-0.283,6.676-0.312,7.615c-0.067,1.678-0.163,3.352-0.53,4.949c-1.505,5.95-7.302,6.272-8.838,6.272
		c-1.225,0-3.73-0.196-5.798-1.574c-3.292-2.223-3.328-5.544-3.328-9.115v-5.018c-0.028-2.375-0.028-3.45-0.09-4.013
		c-0.19-1.383-0.879-1.65-2.538-1.749v-1.194H285.093z"/>
	<path fill="#FFFFFF" d="M364.63,127.578v1.194c-2.124,0.317-2.42,0.905-4.23,5.296l-6.742,16.067h-1.188l-6.05-16.32
		c-1.498-4.202-1.693-4.696-3.912-5.043v-1.194h10.496v1.194c-1.787,0.06-2.946,0.123-2.946,1.411c0,0.623,0.155,1.16,0.755,3.003
		l3.855,11.258l4.504-11.637c0.283-0.778,0.658-1.788,0.658-2.342c0-1.595-1.561-1.67-2.943-1.693v-1.194H364.63z"/>
	<path fill="#FFFFFF" d="M469.504,149.701v-1.194c1.734-0.182,2.393-0.244,2.828-0.687c0.506-0.495,0.506-1.058,0.523-3.474v-3.89
		l-5.871-9.113c-1.602-2.386-1.633-2.448-3.756-2.571v-1.226h11.512v1.226c-2.322,0.06-3.354,0.123-3.354,1.187
		c0,0.599,0.408,1.286,0.973,2.226l3.387,5.537l3.123-5.508c0.561-1.103,0.879-1.748,0.879-2.255c0-1.063-0.904-1.088-2.445-1.187
		v-1.226h8.637v1.226c-2.23,0.06-2.877,0.723-5.406,4.85l-3.443,5.765v4.616c0,4.006,0.021,4.322,3.305,4.504v1.194H469.504z"/>
	<path fill="#FFFFFF" d="M383.585,149.701c0-1.601,0.275-4.227,0.467-5.732h-1.063c-0.761,3.951-2.979,3.758-6.177,3.758
		c-2.946,0-3.536-0.788-3.536-2.228v-6.186h2.381c2.722,0,3.504,0.238,3.504,2.71h1.063v-7.297h-1.063
		c-0.212,1.966-0.618,2.615-3.474,2.615h-2.411v-7.795h2.718c3.765,0,5.11,0.277,5.618,3.286h1.002l-0.131-5.255h-15.76v1.183
		c1.593,0.163,2.284,0.254,2.507,1.299c0.159,0.683,0.178,3.117,0.178,3.998v7.778c0,0.596-0.02,3.255-0.051,3.795
		c-0.061,2.407-0.351,2.632-2.635,2.848v1.223H383.585z"/>
	<path fill="#FFFFFF" d="M677.668,140.082v1.193c-2.008,0.114-2.008,0.688-2.064,4.884v1.661c-1.713,1.065-4.174,2.602-8.516,2.602
		c-7.615,0-11.248-5.774-11.248-11.564c0-7.08,4.783-11.695,10.799-11.695c3.775,0,5.957,1.418,7.756,2.516l1.162-1.313l0.164,6.913
		l-0.893,0.167c-0.459-1.313-1.139-2.832-2.801-4.504c-0.74-0.716-2.148-1.645-4.377-1.645c-3.863,0-7.072,3.255-7.072,9.621
		c0,5.086,2.514,9.437,6.811,9.437c2.473,0,3.727-1.721,3.85-1.855c0.395-0.595,0.486-1.124,0.449-2.094
		c-0.104-2.824-0.484-2.882-2.932-3.129v-1.193H677.668z"/>
	<path fill="#FFFFFF" d="M393.861,137.832c0.589,0.127,1.438,0.226,2.067,0.226c2.512,0.01,4.418-1.964,4.506-3.736
		c0.143-2.558-1.156-4.786-5.226-4.786c-0.566,0-0.913,0.025-1.347,0.119V137.832z M393.861,142.654
		c0.036,5.072,0.036,5.762,2.692,5.824v1.223h-9.24v-1.223c2.378-0.19,2.631-0.568,2.662-2.95c0.026-0.91,0.026-1.94,0.026-2.845
		v-8.006c0-2.653-0.026-3.597-0.123-4.314c-0.16-1.225-0.756-1.449-2.566-1.603v-1.183l10.022,0.028
		c5.457,0,7.176,2.604,7.176,5.672c0,2.136-1.312,4.907-4.363,5.841l3.922,6.815c1.419,2.607,2.168,3.207,3.956,3.453v0.748
		c-0.474,0.036-0.95,0.059-1.447,0.059c-4.172,0-5.896-1.434-7.644-5.167l-1.225-2.596c-1.318-2.788-1.756-2.619-3.85-2.654V142.654
		z"/>
</g>
<rect x="246.007" y="42.551" fill="#FFFFFF" width="1.898" height="107.838"/>
</svg>
